<mxfile host="app.diagrams.net" modified="2022-02-08T08:58:44.508Z" agent="5.0 (Windows NT 10.0; Win64; x64) AppleWebKit/537.36 (KHTML, like Gecko) Chrome/98.0.4758.80 Safari/537.36 Edg/98.0.1108.43" etag="H5vCuTuul_I3D8py4V-u" version="16.4.7" type="github" pages="2">
  <diagram id="CIzQjFlQaGnvJAiPNnmD" name="Page-1">
    <mxGraphModel dx="2637" dy="1150" grid="0" gridSize="10" guides="1" tooltips="1" connect="1" arrows="1" fold="1" page="0" pageScale="1" pageWidth="850" pageHeight="1100" math="0" shadow="0">
      <root>
        <mxCell id="0" />
        <mxCell id="1" parent="0" />
        <mxCell id="BN-cFnopleWR1GkDT9Ne-3" value="Username: _________&lt;br&gt;Password: _________&lt;br&gt;" style="rounded=0;whiteSpace=wrap;html=1;sketch=0;hachureGap=4;fontSize=16;" parent="1" vertex="1">
          <mxGeometry x="18.5" y="280" width="224" height="42" as="geometry" />
        </mxCell>
        <mxCell id="BN-cFnopleWR1GkDT9Ne-4" value="&lt;h1&gt;&lt;font style=&quot;font-size: 50px&quot;&gt;Listility&lt;/font&gt;&lt;/h1&gt;" style="text;html=1;align=center;verticalAlign=middle;resizable=0;points=[];autosize=1;strokeColor=none;fillColor=none;sketch=0;hachureGap=4;fontSize=16;" parent="1" vertex="1">
          <mxGeometry x="38" y="166" width="185" height="72" as="geometry" />
        </mxCell>
        <mxCell id="BN-cFnopleWR1GkDT9Ne-8" value="Login" style="rounded=0;whiteSpace=wrap;html=1;sketch=0;hachureGap=4;fontSize=16;" parent="1" vertex="1">
          <mxGeometry x="18.5" y="331" width="224" height="42" as="geometry" />
        </mxCell>
        <mxCell id="BN-cFnopleWR1GkDT9Ne-10" value="Continue SSO" style="whiteSpace=wrap;html=1;sketch=0;hachureGap=4;fontSize=16;" parent="1" vertex="1">
          <mxGeometry x="19" y="382" width="224" height="42" as="geometry" />
        </mxCell>
        <mxCell id="BN-cFnopleWR1GkDT9Ne-17" value="" style="rounded=0;whiteSpace=wrap;html=1;sketch=0;hachureGap=4;fontSize=16;fillColor=none;" parent="1" vertex="1">
          <mxGeometry x="-479" y="105" width="1246" height="1" as="geometry" />
        </mxCell>
        <mxCell id="BN-cFnopleWR1GkDT9Ne-22" style="edgeStyle=none;curved=1;sketch=0;orthogonalLoop=1;jettySize=auto;html=1;fontSize=16;endArrow=open;startSize=14;endSize=14;sourcePerimeterSpacing=8;targetPerimeterSpacing=8;" parent="1" source="BN-cFnopleWR1GkDT9Ne-18" target="BN-cFnopleWR1GkDT9Ne-21" edge="1">
          <mxGeometry relative="1" as="geometry">
            <Array as="points">
              <mxPoint x="-418" y="10" />
            </Array>
          </mxGeometry>
        </mxCell>
        <mxCell id="BN-cFnopleWR1GkDT9Ne-18" value="&amp;lt;logo&amp;gt;" style="text;strokeColor=none;fillColor=none;html=1;align=center;verticalAlign=middle;whiteSpace=wrap;rounded=0;sketch=0;hachureGap=4;fontSize=16;" parent="1" vertex="1">
          <mxGeometry x="-468" y="63" width="60" height="30" as="geometry" />
        </mxCell>
        <mxCell id="BN-cFnopleWR1GkDT9Ne-29" style="edgeStyle=none;curved=1;sketch=0;orthogonalLoop=1;jettySize=auto;html=1;fontSize=16;endArrow=open;startSize=14;endSize=14;sourcePerimeterSpacing=8;targetPerimeterSpacing=8;" parent="1" source="BN-cFnopleWR1GkDT9Ne-19" target="BN-cFnopleWR1GkDT9Ne-28" edge="1">
          <mxGeometry relative="1" as="geometry" />
        </mxCell>
        <mxCell id="BN-cFnopleWR1GkDT9Ne-19" value="Register" style="text;strokeColor=none;fillColor=none;html=1;align=center;verticalAlign=middle;whiteSpace=wrap;rounded=0;sketch=0;hachureGap=4;fontSize=16;" parent="1" vertex="1">
          <mxGeometry x="679" y="63" width="75" height="30" as="geometry" />
        </mxCell>
        <mxCell id="BN-cFnopleWR1GkDT9Ne-21" value="(will be used as a home-button)" style="text;strokeColor=none;fillColor=none;html=1;align=center;verticalAlign=middle;whiteSpace=wrap;rounded=0;sketch=0;hachureGap=4;fontSize=16;" parent="1" vertex="1">
          <mxGeometry x="-360" y="7" width="245" height="30" as="geometry" />
        </mxCell>
        <mxCell id="BN-cFnopleWR1GkDT9Ne-27" style="edgeStyle=none;curved=1;sketch=0;orthogonalLoop=1;jettySize=auto;html=1;fontSize=16;endArrow=open;startSize=14;endSize=14;sourcePerimeterSpacing=8;targetPerimeterSpacing=8;" parent="1" source="BN-cFnopleWR1GkDT9Ne-25" target="BN-cFnopleWR1GkDT9Ne-26" edge="1">
          <mxGeometry relative="1" as="geometry">
            <Array as="points">
              <mxPoint x="608" y="20" />
            </Array>
          </mxGeometry>
        </mxCell>
        <mxCell id="BN-cFnopleWR1GkDT9Ne-25" value="About" style="text;strokeColor=none;fillColor=none;html=1;align=center;verticalAlign=middle;whiteSpace=wrap;rounded=0;sketch=0;hachureGap=4;fontSize=16;" parent="1" vertex="1">
          <mxGeometry x="585" y="63" width="75" height="30" as="geometry" />
        </mxCell>
        <mxCell id="BN-cFnopleWR1GkDT9Ne-26" value="(transfer to &quot;about&quot; page)" style="text;strokeColor=none;fillColor=none;html=1;align=center;verticalAlign=middle;whiteSpace=wrap;rounded=0;sketch=0;hachureGap=4;fontSize=16;" parent="1" vertex="1">
          <mxGeometry x="378" y="-14" width="199" height="30" as="geometry" />
        </mxCell>
        <mxCell id="BN-cFnopleWR1GkDT9Ne-28" value="Register" style="text;strokeColor=none;fillColor=none;html=1;align=center;verticalAlign=middle;whiteSpace=wrap;rounded=0;sketch=0;hachureGap=4;fontSize=16;" parent="1" vertex="1">
          <mxGeometry x="745" y="-16" width="75" height="30" as="geometry" />
        </mxCell>
      </root>
    </mxGraphModel>
  </diagram>
  <diagram id="w8g2vtJPyLUujRzdfq9H" name="Page-2">
    <mxGraphModel dx="1102" dy="450" grid="1" gridSize="10" guides="1" tooltips="1" connect="1" arrows="1" fold="1" page="1" pageScale="1" pageWidth="850" pageHeight="1100" math="0" shadow="0">
      <root>
        <mxCell id="IO0NCA32Hcr1Dk4-gXXb-0" />
        <mxCell id="IO0NCA32Hcr1Dk4-gXXb-1" parent="IO0NCA32Hcr1Dk4-gXXb-0" />
        <mxCell id="IO0NCA32Hcr1Dk4-gXXb-2" value="Shopping List&lt;br&gt;1. item-1&lt;br&gt;2. item2&lt;br&gt;3. item3&lt;br&gt;4. item4&lt;br&gt;5. item5" style="rounded=1;whiteSpace=wrap;html=1;" vertex="1" parent="IO0NCA32Hcr1Dk4-gXXb-1">
          <mxGeometry x="40" y="90" width="160" height="190" as="geometry" />
        </mxCell>
        <mxCell id="IO0NCA32Hcr1Dk4-gXXb-3" value="Shopping List&lt;br&gt;1. item-1&lt;br&gt;2. item2&lt;br&gt;3. item3&lt;br&gt;4. item4&lt;br&gt;5. item5" style="rounded=1;whiteSpace=wrap;html=1;" vertex="1" parent="IO0NCA32Hcr1Dk4-gXXb-1">
          <mxGeometry x="220" y="90" width="160" height="190" as="geometry" />
        </mxCell>
        <mxCell id="IO0NCA32Hcr1Dk4-gXXb-4" value="Shopping List&lt;br&gt;1. item-1&lt;br&gt;2. item2&lt;br&gt;3. item3&lt;br&gt;4. item4&lt;br&gt;5. item5" style="rounded=1;whiteSpace=wrap;html=1;" vertex="1" parent="IO0NCA32Hcr1Dk4-gXXb-1">
          <mxGeometry x="400" y="90" width="160" height="190" as="geometry" />
        </mxCell>
        <mxCell id="IO0NCA32Hcr1Dk4-gXXb-5" value="Shopping List&lt;br&gt;1. item-1&lt;br&gt;2. item2&lt;br&gt;3. item3&lt;br&gt;4. item4&lt;br&gt;5. item5" style="rounded=1;whiteSpace=wrap;html=1;" vertex="1" parent="IO0NCA32Hcr1Dk4-gXXb-1">
          <mxGeometry x="580" y="90" width="160" height="190" as="geometry" />
        </mxCell>
        <mxCell id="IO0NCA32Hcr1Dk4-gXXb-7" value="Shopping List&lt;br&gt;1. item-1&lt;br&gt;2. item2&lt;br&gt;3. item3&lt;br&gt;4. item4&lt;br&gt;5. item5" style="rounded=1;whiteSpace=wrap;html=1;" vertex="1" parent="IO0NCA32Hcr1Dk4-gXXb-1">
          <mxGeometry x="40" y="310" width="160" height="190" as="geometry" />
        </mxCell>
        <mxCell id="IO0NCA32Hcr1Dk4-gXXb-8" value="Shopping List&lt;br&gt;1. item-1&lt;br&gt;2. item2&lt;br&gt;3. item3&lt;br&gt;4. item4&lt;br&gt;5. item5" style="rounded=1;whiteSpace=wrap;html=1;" vertex="1" parent="IO0NCA32Hcr1Dk4-gXXb-1">
          <mxGeometry x="220" y="310" width="160" height="190" as="geometry" />
        </mxCell>
        <mxCell id="IO0NCA32Hcr1Dk4-gXXb-9" value="Shopping List&lt;br&gt;1. item-1&lt;br&gt;2. item2&lt;br&gt;3. item3&lt;br&gt;4. item4&lt;br&gt;5. item5" style="rounded=1;whiteSpace=wrap;html=1;" vertex="1" parent="IO0NCA32Hcr1Dk4-gXXb-1">
          <mxGeometry x="400" y="310" width="160" height="190" as="geometry" />
        </mxCell>
        <mxCell id="IO0NCA32Hcr1Dk4-gXXb-10" value="Shopping List&lt;br&gt;1. item-1&lt;br&gt;2. item2&lt;br&gt;3. item3&lt;br&gt;4. item4&lt;br&gt;5. item5" style="rounded=1;whiteSpace=wrap;html=1;" vertex="1" parent="IO0NCA32Hcr1Dk4-gXXb-1">
          <mxGeometry x="580" y="310" width="160" height="190" as="geometry" />
        </mxCell>
        <mxCell id="IO0NCA32Hcr1Dk4-gXXb-11" value="Shopping List&lt;br&gt;1. item-1&lt;br&gt;2. item2&lt;br&gt;3. item3&lt;br&gt;4. item4&lt;br&gt;5. item5" style="rounded=1;whiteSpace=wrap;html=1;" vertex="1" parent="IO0NCA32Hcr1Dk4-gXXb-1">
          <mxGeometry x="40" y="520" width="160" height="190" as="geometry" />
        </mxCell>
        <mxCell id="IO0NCA32Hcr1Dk4-gXXb-12" value="Shopping List&lt;br&gt;1. item-1&lt;br&gt;2. item2&lt;br&gt;3. item3&lt;br&gt;4. item4&lt;br&gt;5. item5" style="rounded=1;whiteSpace=wrap;html=1;" vertex="1" parent="IO0NCA32Hcr1Dk4-gXXb-1">
          <mxGeometry x="220" y="520" width="160" height="190" as="geometry" />
        </mxCell>
        <mxCell id="IO0NCA32Hcr1Dk4-gXXb-13" value="Shopping List&lt;br&gt;1. item-1&lt;br&gt;2. item2&lt;br&gt;3. item3&lt;br&gt;4. item4&lt;br&gt;5. item5" style="rounded=1;whiteSpace=wrap;html=1;" vertex="1" parent="IO0NCA32Hcr1Dk4-gXXb-1">
          <mxGeometry x="400" y="520" width="160" height="190" as="geometry" />
        </mxCell>
        <mxCell id="IO0NCA32Hcr1Dk4-gXXb-14" value="Shopping List&lt;br&gt;1. item-1&lt;br&gt;2. item2&lt;br&gt;3. item3&lt;br&gt;4. item4&lt;br&gt;5. item5" style="rounded=1;whiteSpace=wrap;html=1;" vertex="1" parent="IO0NCA32Hcr1Dk4-gXXb-1">
          <mxGeometry x="580" y="520" width="160" height="190" as="geometry" />
        </mxCell>
      </root>
    </mxGraphModel>
  </diagram>
</mxfile>
